<?xml version="1.0" encoding="utf-8"?>
<!-- Generator: Adobe Illustrator 27.4.1, SVG Export Plug-In . SVG Version: 6.00 Build 0)  -->
<svg version="1.1" id="Laag_1" xmlns="http://www.w3.org/2000/svg" xmlns:xlink="http://www.w3.org/1999/xlink" x="0px" y="0px"
	 viewBox="0 0 16 16" style="enable-background:new 0 0 16 16;" xml:space="preserve">
<style type="text/css">
	.st0{fill:#FFFFFF;}
</style>
<path class="st0" d="M1.5,1.5C1.5,1.2,1.7,1,2,1h12c0.3,0,0.5,0.2,0.5,0.5v2c0,0.1,0,0.2-0.1,0.3L10,8.7v4.8c0,0.2-0.1,0.4-0.3,0.5
	l-3,1c-0.3,0.1-0.5-0.1-0.6-0.3c0-0.1,0-0.1,0-0.2V8.7L1.6,3.8C1.5,3.7,1.5,3.6,1.5,3.5V1.5z M2.5,2v1.3l4.4,4.9C7,8.3,7,8.4,7,8.5
	v5.3l2-0.7V8.5c0-0.1,0-0.2,0.1-0.3l4.4-4.9V2H2.5z"/>
</svg>
